<svg xmlns="http://www.w3.org/2000/svg"  width="100%" height="100%" viewBox="0 0 388 100" version="1.1"><defs id="SvgjsDefs1011"></defs><g id="SvgjsG1012" featurekey="HdFLvg-0" transform="matrix(0.8749798064123963,0,0,0.8749798064123963,-8.74904539404055,-8.749716288438625)" fill="#3fc1c9"><path xmlns="http://www.w3.org/2000/svg" fill="none" stroke="#3fc1c9" stroke-width="2" stroke-linecap="round" stroke-linejoin="round" stroke-miterlimit="10" d="  M61.602,38.398c1.178,1.178,0.647,3.583,1.367,4.992c0.744,1.464,2.989,2.454,3.235,4.041c0.253,1.602-1.583,3.238-1.829,4.846  c-0.256,1.584,0.99,3.707,0.246,5.172c-0.719,1.412-3.154,1.66-4.334,2.839c-1.184,1.182-1.43,3.617-2.839,4.334  c-1.466,0.747-3.585-0.503-5.177-0.252c-1.604,0.252-3.24,2.088-4.842,1.837c-1.588-0.252-2.577-2.491-4.038-3.239  c-1.412-0.72-3.813-0.188-4.995-1.366c-1.182-1.183-0.647-3.584-1.364-4.992c-0.749-1.465-2.99-2.453-3.24-4.041  c-0.253-1.604,1.583-3.238,1.834-4.845c0.252-1.588-0.995-3.709-0.251-5.171c0.72-1.415,3.152-1.657,4.336-2.841  c1.18-1.179,1.426-3.617,2.839-4.334c1.46-0.744,3.584,0.499,5.173,0.25c1.605-0.25,3.24-2.086,4.843-1.835  c1.588,0.252,2.578,2.492,4.043,3.238C58.018,37.75,60.42,37.216,61.602,38.398z"></path><path xmlns="http://www.w3.org/2000/svg" stroke="#3fc1c9" stroke-width="2" stroke-linecap="round" stroke-linejoin="round" stroke-miterlimit="10" d="M64.375,52.277  c-0.256,1.584,0.99,3.707,0.246,5.172c-0.719,1.412-3.154,1.66-4.334,2.839c-1.184,1.182-1.43,3.617-2.839,4.334  c-1.466,0.747-3.585-0.503-5.177-0.252c-0.439,0.069-0.888,0.262-1.332,0.493l15.303,15.303l3.094-10.831l10.828-3.091  L64.865,50.941C64.633,51.389,64.439,51.833,64.375,52.277z"></path><path xmlns="http://www.w3.org/2000/svg" stroke="#3fc1c9" stroke-width="2" stroke-linecap="round" stroke-linejoin="round" stroke-miterlimit="10" d="M55.801,55.802  c-3.203,3.201-8.398,3.201-11.603,0c-3.204-3.207-3.204-8.402,0-11.604c3.204-3.204,8.399-3.204,11.603,0  C59.004,47.4,59.004,52.595,55.801,55.802z"></path><path xmlns="http://www.w3.org/2000/svg" stroke="#3fc1c9" stroke-width="2" stroke-linecap="round" stroke-linejoin="round" stroke-miterlimit="10" d="M89.641,33.564  c-1.603,1.603-8.096-2.294-14.502-8.702c-6.408-6.408-10.305-12.9-8.701-14.501c1.602-1.605,8.095,2.291,14.502,8.699  C87.348,25.468,91.243,31.96,89.641,33.564z"></path><path xmlns="http://www.w3.org/2000/svg" fill="none" stroke="#3fc1c9" stroke-width="2" stroke-linecap="round" stroke-linejoin="round" stroke-miterlimit="10" d="  M88.887,33.895c0.309-0.041,0.568-0.146,0.754-0.331C89.389,33.667,89.139,33.789,88.887,33.895z"></path><path xmlns="http://www.w3.org/2000/svg" fill="none" stroke="#3fc1c9" stroke-width="2" stroke-linecap="round" stroke-linejoin="round" stroke-miterlimit="10" d="  M66.104,11.112c0.106-0.251,0.228-0.499,0.332-0.753C66.25,10.543,66.146,10.804,66.104,11.112z"></path><path xmlns="http://www.w3.org/2000/svg" fill="none" stroke="#3fc1c9" stroke-width="2" stroke-linecap="round" stroke-linejoin="round" stroke-miterlimit="10" d="  M47.309,35.647c0.142-0.002,0.283,0,0.414-0.021c1.605-0.25,3.24-2.086,4.843-1.835c1.588,0.252,2.578,2.492,4.043,3.238  c1.408,0.721,3.812,0.187,4.992,1.368c1.178,1.178,0.647,3.583,1.367,4.992c0.744,1.464,2.989,2.454,3.235,4.041  c0.253,1.602-1.583,3.238-1.829,4.845c-0.021,0.133-0.02,0.272-0.021,0.414l6.737-6.738c5.274-5.276,11.341-9.281,17.796-12.058  c-2.361,0.324-8.086-3.369-13.748-9.033c-5.664-5.664-9.357-11.387-9.033-13.75c-2.777,6.456-6.782,12.521-12.058,17.796  L47.309,35.647z"></path><path xmlns="http://www.w3.org/2000/svg" fill="none" stroke="#3fc1c9" stroke-width="2" stroke-linecap="round" stroke-linejoin="round" stroke-miterlimit="10" d="  M33.785,89.307c0.054-0.121,0.088-0.259,0.108-0.41c0-0.004,0.003-0.006,0.003-0.011v0.005c0-0.005,0-0.005,0-0.005l0,0  c2.777-6.456,6.78-12.52,12.055-17.794l6.738-6.738c-0.14,0.004-0.28,0-0.412,0.021c-1.604,0.248-3.24,2.084-4.845,1.833  c-1.588-0.252-2.576-2.491-4.041-3.239c-1.409-0.716-3.811-0.183-4.993-1.363c-1.181-1.183-0.646-3.586-1.368-4.996  c-0.742-1.463-2.985-2.452-3.235-4.041c-0.251-1.603,1.583-3.237,1.831-4.846c0.021-0.131,0.018-0.272,0.021-0.411l-6.739,6.74  c-5.274,5.274-11.338,9.277-17.794,12.055h0.002c-0.002,0-0.002,0-0.002,0l0,0c-0.005,0-0.011,0.004-0.016,0.004  c-0.148,0.021-0.286,0.056-0.406,0.109c-0.128,0.053-0.239,0.129-0.333,0.221c-1.602,1.603,2.295,8.094,8.703,14.502  c6.407,6.406,12.898,10.304,14.5,8.701C33.656,89.548,33.731,89.434,33.785,89.307z"></path></g><g id="SvgjsG1013" featurekey="VomJeJ-0" transform="matrix(3.0809860086067435,0,0,3.0809860086067435,85.31690169296505,-4.267606771860194)" fill="#364f6b"><path d="M4.7 9.06 l0.02 1.56 l0 1.26 l4.28 0 q0.16 0.6 0.16 1.31 t-0.16 1.31 l-4.28 0 l0 5.5 q-0.64 0.12 -1.6 0.12 t-1.6 -0.12 l0 -13.54 l0.14 -0.12 l8.56 0 q0.12 0.5 0.12 1.25 t-0.41 1.11 t-1.29 0.36 l-3.94 0 z M10.82 11.46 q0.1 -0.4 0.38 -0.89 t0.56 -0.71 q1.84 0.14 2.56 1.82 q0.76 -1.8 2.5 -1.8 q0.52 0 1.32 0.16 q0 0.62 -0.21 1.47 t-0.57 1.45 q-0.34 -0.12 -1.02 -0.2 q-1 0 -1.64 1.02 l0 6.22 q-0.66 0.12 -1.55 0.12 t-1.57 -0.12 l0 -6.46 q0 -1.5 -0.76 -2.08 z M26.84 16.02 l-5.22 0 q0.04 0.9 0.46 1.4 t1.38 0.5 q0.48 0 1.11 -0.14 t1.45 -0.46 q0.66 0.68 0.82 1.84 q-1.6 1.14 -3.92 1.14 q-1.26 0 -2.11 -0.4 t-1.38 -1.12 t-0.75 -1.7 t-0.22 -2.14 q0 -1.12 0.27 -2.07 t0.82 -1.65 t1.4 -1.1 t1.99 -0.4 q0.96 0 1.73 0.32 t1.31 0.88 t0.83 1.34 t0.29 1.7 q0 1.22 -0.26 2.06 z M21.6 13.86 l2.64 0 l0 -0.22 q0 -0.74 -0.33 -1.22 t-0.99 -0.48 q-0.64 0 -0.95 0.45 t-0.37 1.47 z M36.78 16.02 l-5.22 0 q0.04 0.9 0.46 1.4 t1.38 0.5 q0.48 0 1.11 -0.14 t1.45 -0.46 q0.66 0.68 0.82 1.84 q-1.6 1.14 -3.92 1.14 q-1.26 0 -2.11 -0.4 t-1.38 -1.12 t-0.75 -1.7 t-0.22 -2.14 q0 -1.12 0.27 -2.07 t0.82 -1.65 t1.4 -1.1 t1.99 -0.4 q0.96 0 1.73 0.32 t1.31 0.88 t0.83 1.34 t0.29 1.7 q0 1.22 -0.26 2.06 z M31.54 13.86 l2.64 0 l0 -0.22 q0 -0.74 -0.33 -1.22 t-0.99 -0.48 q-0.64 0 -0.95 0.45 t-0.37 1.47 z M42.839999999999996 17.72 l0.54 0 q0.24 0.66 0.24 1.32 t-0.06 0.86 q-1.2 0.2 -2.14 0.2 q-1.36 0 -1.93 -0.67 t-0.57 -2.11 l0 -11.9 l0.12 -0.14 l1.22 0 q0.94 0 1.32 0.42 t0.38 1.46 l0 9.62 q0 0.94 0.88 0.94 z M53.67999999999999 18.56 q-0.1 0.42 -0.38 0.9 t-0.58 0.7 q-1.4 -0.04 -2.16 -1.06 q-1.3 1.2 -2.82 1.2 q-0.78 0 -1.36 -0.25 t-0.98 -0.67 t-0.6 -0.97 t-0.2 -1.15 q0 -0.86 0.31 -1.51 t0.85 -1.08 t1.26 -0.65 t1.54 -0.22 q0.46 0 0.81 0.01 t0.61 0.03 l0 -0.38 q0 -1.26 -1.3 -1.26 q-0.84 0 -2.94 0.64 q-0.6 -0.7 -0.76 -2.18 q0.48 -0.18 1.07 -0.34 t1.21 -0.28 t1.22 -0.19 t1.08 -0.07 q0.7 0 1.35 0.2 t1.14 0.61 t0.78 1.06 t0.29 1.55 l0 4.06 q0 0.92 0.56 1.3 z M47.63999999999999 17.06 q0 0.94 1.08 0.94 q0.56 0 1.26 -0.58 l0 -1.6 q-0.4 -0.02 -0.67 -0.03 t-0.41 -0.01 q-1.26 0 -1.26 1.28 z M64.05999999999999 13.4 l0 4.1 q0 1.32 0.48 1.98 q-0.76 0.68 -1.82 0.68 q-1.04 0 -1.42 -0.48 t-0.38 -1.46 l0 -4.26 q0 -0.68 -0.18 -1 t-0.7 -0.32 q-0.3 0 -0.68 0.16 t-0.78 0.52 l0 6.68 q-0.34 0.06 -0.74 0.09 t-0.82 0.03 t-0.82 -0.03 t-0.74 -0.09 l0 -9.98 l0.14 -0.14 l1.18 0 q1.22 0 1.64 1.2 q1.4 -1.24 2.78 -1.24 q1.4 0 2.13 0.97 t0.73 2.59 z M71.38 14.440000000000001 l0 -0.26 q0 -1.12 -0.24 -1.63 t-0.9 -0.51 q-0.7 0 -0.98 0.69 t-0.28 2.29 q0 0.8 0.11 1.34 t0.32 0.87 t0.53 0.48 t0.76 0.15 q0.46 0 1.02 -0.2 t1.2 -0.64 q0.18 0.1 0.37 0.29 t0.35 0.43 t0.28 0.51 t0.18 0.51 q-0.66 0.7 -1.72 1.12 t-2.16 0.42 q-2.14 0 -3.28 -1.4 t-1.14 -3.98 q0 -1.32 0.37 -2.3 t0.98 -1.62 t1.4 -0.96 t1.65 -0.32 q0.88 0 1.61 0.24 t1.26 0.68 t0.82 1.05 t0.29 1.35 q0 0.84 -0.49 1.18 t-1.21 0.34 q-0.6 0 -1.1 -0.12 z M83.52 16.02 l-5.22 0 q0.04 0.9 0.46 1.4 t1.38 0.5 q0.48 0 1.11 -0.14 t1.45 -0.46 q0.66 0.68 0.82 1.84 q-1.6 1.14 -3.92 1.14 q-1.26 0 -2.11 -0.4 t-1.38 -1.12 t-0.75 -1.7 t-0.22 -2.14 q0 -1.12 0.27 -2.07 t0.82 -1.65 t1.4 -1.1 t1.99 -0.4 q0.96 0 1.73 0.32 t1.31 0.88 t0.83 1.34 t0.29 1.7 q0 1.22 -0.26 2.06 z M78.27999999999999 13.86 l2.64 0 l0 -0.22 q0 -0.74 -0.33 -1.22 t-0.99 -0.48 q-0.64 0 -0.95 0.45 t-0.37 1.47 z M85.07999999999998 11.46 q0.1 -0.4 0.38 -0.89 t0.56 -0.71 q1.84 0.14 2.56 1.82 q0.76 -1.8 2.5 -1.8 q0.52 0 1.32 0.16 q0 0.62 -0.21 1.47 t-0.57 1.45 q-0.34 -0.12 -1.02 -0.2 q-1 0 -1.64 1.02 l0 6.22 q-0.66 0.12 -1.55 0.12 t-1.57 -0.12 l0 -6.46 q0 -1.5 -0.76 -2.08 z"></path></g></svg>